# xmcd CD database file
#
# Track frame offsets:
#	150
#	36211
#	50763
#	72876
#	101826
#	112053
#	136281
#	160590
#	196937
#
# Disc length: 3266 seconds
#
# Revision: 0
# Processed by: cddbd v1.5.1PL0 Copyright (c) Steve Scherf et al.
# Submitted via: CDex 1.50beta9
#
DISCID=7e0cc009
DTITLE=Eddie Henderson - Oasis
DYEAR=2001
DGENRE=Jazz
TTITLE0=Dubia
TTITLE1=Oasis
TTITLE2=Sandstorm
TTITLE3=Lost
TTITLE4=Siddhartha
TTITLE5=Why not?
TTITLE6=Cantaloupe island
TTITLE7=Melancholee
TTITLE8=Desert sun
EXTD=YEAR: 2001
EXTT0=
EXTT1=
EXTT2=
EXTT3=
EXTT4=
EXTT5=
EXTT6=
EXTT7=
EXTT8=
PLAYORDER=
